<svg width="496" height="496" viewBox="0 0 496 496" fill="none" xmlns="http://www.w3.org/2000/svg">
<path d="M248 0C111.03 0 0 111.03 0 248C0 384.97 111.03 496 248 496C384.97 496 496 384.97 496 248C496 111.03 384.97 0 248 0ZM330.29 357.6C326.39 361.48 322.3 365.55 318.98 368.88C315.99 371.88 313.88 375.58 312.81 379.59C311.3 385.25 310.08 390.97 308.04 396.46L290.65 443.31C276.89 446.31 262.65 448 248 448V420.62C249.69 408 240.36 384.36 225.37 369.37C219.37 363.37 216 355.23 216 346.74V314.73C216 303.09 209.73 292.39 199.54 286.76C185.17 278.81 164.73 267.7 150.73 260.65C139.25 254.87 128.63 247.51 119.08 238.9L118.28 238.18C111.451 232.015 105.387 225.052 100.22 217.44C90.84 203.67 75.56 181.02 65.63 166.3C86.1 120.8 122.99 84.26 168.83 64.41L192.84 76.42C203.48 81.74 216 74.01 216 62.11V50.81C223.99 49.52 232.12 48.7 240.39 48.39L268.69 76.69C274.94 82.94 274.94 93.07 268.69 99.32L264 104L253.66 114.34C250.54 117.46 250.54 122.53 253.66 125.65L258.35 130.34C261.47 133.46 261.47 138.53 258.35 141.65L250.35 149.65C248.848 151.149 246.812 151.991 244.69 151.99H235.7C233.62 151.99 231.62 152.8 230.12 154.26L220.2 163.91C218.984 165.094 218.176 166.634 217.892 168.307C217.608 169.981 217.863 171.701 218.62 173.22L234.21 204.41C236.87 209.73 233 215.99 227.06 215.99H221.42C219.49 215.99 217.63 215.29 216.18 214.03L206.9 205.97C204.8 204.148 202.262 202.904 199.536 202.361C196.809 201.817 193.988 201.993 191.35 202.87L160.18 213.26C157.8 214.053 155.731 215.576 154.264 217.611C152.798 219.646 152.009 222.091 152.01 224.6C152.01 229.13 154.57 233.26 158.62 235.29L169.7 240.83C179.11 245.54 189.49 247.99 200.01 247.99C210.53 247.99 222.6 275.28 232.01 279.99H298.76C307.25 279.99 315.38 283.36 321.39 289.36L335.08 303.05C340.799 308.771 344.011 316.53 344.01 324.62C344.008 330.75 342.795 336.819 340.44 342.479C338.086 348.139 334.636 353.277 330.29 357.6V357.6ZM417 266.25C411.21 264.8 406.16 261.25 402.85 256.28L384.87 229.31C382.239 225.37 380.835 220.738 380.835 216C380.835 211.262 382.239 206.63 384.87 202.69L404.46 173.31C406.78 169.84 409.96 167.02 413.7 165.16L426.68 158.67C440.2 185.59 448 215.87 448 248C448 256.67 447.26 265.16 446.18 273.54L417 266.25Z" fill="white"/>
</svg>
